<?xml version="1.0" standalone="no"?>
<!DOCTYPE svg PUBLIC "-//W3C//DTD SVG 1.1//EN" "http://www.w3.org/Graphics/SVG/1.1/DTD/svg11.dtd" >
<svg>
<metadata>
Created by FontForge 20110222 at Sun Jul  6 04:29:51 2014
 By Orthosie Webhosting
Copyright 2012 Google Inc. All Rights Reserved.
</metadata>
<defs>
<font id="NotoSansHebrewRegular" horiz-adv-x="0" >
  <font-face 
    font-family="NotoSansHebrewRegular"
    font-weight="400"
    font-stretch="normal"
    units-per-em="2048"
    panose-1="2 11 6 0 3 5 0 5 0 0"
    ascent="1638"
    descent="-410"
    bbox="-598 -416 1559 2007"
    underline-thickness="102"
    underline-position="-103"
    unicode-range="U+000D-FEFF"
  />
<missing-glyph horiz-adv-x="1229" 
d="M193 1462h841v-1462h-841v1462zM297 104h633v1254h-633v-1254z" />
    <glyph glyph-name=".notdef" horiz-adv-x="1229" 
d="M193 1462h841v-1462h-841v1462zM297 104h633v1254h-633v-1254z" />
    <glyph glyph-name=".null" unicode="&#xfeff;" 
 />
    <glyph glyph-name=".null" 
 />
    <glyph glyph-name="nonmarkingreturn" unicode="&#xd;" horiz-adv-x="1044" 
 />
    <glyph glyph-name="space" unicode=" " horiz-adv-x="569" 
 />
    <glyph glyph-name="space" unicode="&#xa0;" horiz-adv-x="569" 
 />
    <glyph glyph-name="uni0591" unicode="&#x591;" 
d="M190 -385h-102v47q0 54 -19 77t-67 23q-51 0 -70.5 -23t-19.5 -77v-47h-100v49q0 88 33.5 133t103.5 56v94h102v-94q72 -11 105.5 -56.5t33.5 -132.5v-49z" />
    <glyph glyph-name="uni0592" unicode="&#x592;" 
d="M43 1647q0 32 23 54.5t55 22.5q34 0 57 -22.5t23 -54.5q0 -34 -23 -57t-57 -23q-32 0 -55 23t-23 57zM272 1647q0 32 23 54.5t55 22.5q34 0 57 -22.5t23 -54.5q0 -34 -23 -57t-57 -23q-32 0 -55 23t-23 57zM158 1438q0 34 23 57t55 23q34 0 56.5 -23t22.5 -57
q0 -32 -22.5 -56t-56.5 -24q-32 0 -55 24t-23 56z" />
    <glyph glyph-name="uni0593" unicode="&#x593;" 
d="M147 1788l-155 -86l155 -86l-155 -86l155 -86l-176 -86h-118l155 86l-155 86l155 86l-155 86l155 86h139z" />
    <glyph glyph-name="uni0594" unicode="&#x594;" 
d="M96 1645q0 34 23 56.5t55 22.5q34 0 58 -22.5t24 -56.5q0 -32 -23.5 -55t-58.5 -23q-32 0 -55 23t-23 55zM94 1438q0 34 24 57t56 23t56 -24t24 -56t-23.5 -56t-56.5 -24q-34 0 -57 23t-23 57z" />
    <glyph glyph-name="uni0595" unicode="&#x595;" 
d="M295 1645q0 34 23 56.5t57 22.5q32 0 56 -22.5t24 -56.5q0 -32 -24 -55t-56 -23q-34 0 -57 23t-23 55zM295 1438q0 32 23 56t55 24q33 0 56.5 -23.5t23.5 -56.5q0 -34 -23 -57t-57 -23q-32 0 -55 23t-23 57zM96 1358v366h111v-366h-111z" />
    <glyph glyph-name="uni0596" unicode="&#x596;" 
d="M-68 -82q0 -92 58 -144.5t160 -52.5v-106q-156 0 -242 80t-86 223h110z" />
    <glyph glyph-name="uni0597" unicode="&#x597;" 
d="M152 1536l-152 -168l-152 168l152 168z" />
    <glyph glyph-name="uni0598" unicode="&#x598;" 
d="M-156 1593q-28 0 -46.5 -19t-18.5 -56q0 -64 57 -86l-26 -72q-109 38 -109 158q0 65 41 106t106 41q47 0 87.5 -26.5t93.5 -100.5q40 -57 67.5 -80.5t59.5 -23.5q28 0 46.5 19t18.5 56q0 64 -57 86l26 72q109 -41 109 -158q0 -65 -40.5 -106t-102.5 -41q-50 0 -91.5 27
t-93.5 100q-44 62 -68.5 83t-58.5 21z" />
    <glyph glyph-name="uni0599" unicode="&#x599;" 
d="M-111 1358q0 92 -56.5 144t-160.5 52v109q154 0 241 -79.5t87 -225.5h-111z" />
    <glyph glyph-name="uni059A" unicode="&#x59a;" 
d="M322 -385h-144l-178 180l178 180h144l-179 -180z" />
    <glyph glyph-name="uni059B" unicode="&#x59b;" 
d="M150 -82q0 -141 -85 -222t-243 -81v106q101 0 160 52.5t59 144.5h109zM-215 -94q0 32 23 56t55 24q33 0 56.5 -23.5t23.5 -56.5q0 -34 -23 -57t-57 -23q-32 0 -55 23t-23 57z" />
    <glyph glyph-name="uni059C" unicode="&#x59c;" 
d="M0 1358q0 145 87 225t241 80v-109q-102 0 -159.5 -50.5t-57.5 -145.5h-111z" />
    <glyph glyph-name="uni059D" unicode="&#x59d;" 
d="M0 1358q0 145 87 225t241 80v-109q-102 0 -159.5 -50.5t-57.5 -145.5h-111z" />
    <glyph glyph-name="uni059E" unicode="&#x59e;" 
d="M0 1358q0 145 87 225t241 80v-109q-102 0 -159.5 -50.5t-57.5 -145.5h-111zM-328 1358q0 143 86 224t242 81v-109q-102 0 -159.5 -50.5t-57.5 -145.5h-111z" />
    <glyph glyph-name="uni059F" unicode="&#x59f;" 
d="M90 1618q0 89 63 152t152 63q91 0 154 -62.5t63 -152.5q0 -89 -62 -152t-155 -63q-59 0 -104 24l-88 -88l-82 84l88 88q-29 47 -29 107zM211 1618q0 -40 27.5 -68t66.5 -28q40 0 69 28.5t29 67.5t-30 67.5t-68 28.5q-36 0 -65 -28t-29 -68zM-90 1618q0 -60 -29 -107
l88 -88l-82 -84l-88 88q-45 -24 -104 -24q-92 0 -154.5 62.5t-62.5 152.5q0 89 63 152t154 63q89 0 152 -63t63 -152zM-211 1618q0 40 -29 68t-65 28q-38 0 -68 -29t-30 -67q0 -39 29 -67.5t69 -28.5q38 0 66 28t28 68z" />
    <glyph glyph-name="uni05A0" unicode="&#x5a0;" 
d="M61 1618q0 89 63 152t152 63q88 0 152 -62t64 -153q0 -90 -63 -152.5t-153 -62.5q-57 0 -106 24l-86 -88l-84 84l88 88q-27 46 -27 107zM180 1618q0 -40 28 -68t68 -28q41 0 69 28t28 68t-29 68t-68 28q-38 0 -67 -28t-29 -68z" />
    <glyph glyph-name="uni05A1" unicode="&#x5a1;" 
d="M168 1690v-50q0 -88 -43.5 -139t-130.5 -51q-34 0 -57 10v-102h-101v332h101v-138q10 -12 43 -12q48 0 67 22.5t19 77.5v50h102z" />
    <glyph glyph-name="uni05A2" unicode="&#x5a2;" 
d="M190 -102q0 -90 -34.5 -135t-104.5 -56v-92h-102v92q-67 10 -102 55t-35 136v49h100v-49q0 -53 19.5 -77t70.5 -24q48 0 67 24t19 77v49h102v-49z" />
    <glyph glyph-name="uni05A3" unicode="&#x5a3;" 
d="M143 -35v-313h-327v106h219v207h108z" />
    <glyph glyph-name="uni05A4" unicode="&#x5a4;" 
d="M162 -385h-144l-180 180l180 180h144l-180 -180z" />
    <glyph glyph-name="uni05A5" unicode="&#x5a5;" 
d="M178 -82q0 -143 -85.5 -223t-242.5 -80v106q102 0 160 53t58 144h110z" />
    <glyph glyph-name="uni05A6" unicode="&#x5a6;" 
d="M0 -82q0 -143 -85.5 -223t-242.5 -80v106q103 0 160 53.5t57 143.5h111zM328 -82q0 -141 -85 -222t-243 -81v106q103 0 160 53.5t57 143.5h111z" />
    <glyph glyph-name="uni05A7" unicode="&#x5a7;" 
d="M156 -334l-285 -51v80l141 22l-170 224l287 51v-76l-143 -25z" />
    <glyph glyph-name="uni05A8" unicode="&#x5a8;" 
d="M53 1358q0 92 -56.5 144t-160.5 52v109q154 0 241 -79.5t87 -225.5h-111z" />
    <glyph glyph-name="uni05A9" unicode="&#x5a9;" 
d="M-61 1618q0 -61 -27 -107l88 -88l-84 -84l-86 88q-50 -24 -106 -24q-89 0 -152.5 62t-63.5 153q0 90 64 152.5t152 62.5q87 0 151 -63t64 -152zM-180 1618q0 40 -29 68t-67 28q-39 0 -68 -28.5t-29 -67.5q0 -40 28 -68t69 -28q40 0 68 28t28 68z" />
    <glyph glyph-name="uni05AA" unicode="&#x5aa;" 
d="M190 -102q0 -90 -34.5 -135t-104.5 -56v-92h-102v92q-67 10 -102 55t-35 136v49h100v-49q0 -53 19.5 -77t70.5 -24q48 0 67 24t19 77v49h102v-49z" />
    <glyph glyph-name="uni05AB" unicode="&#x5ab;" 
d="M162 1358h-144l-180 180l180 180h144l-180 -180z" />
    <glyph glyph-name="uni05AC" unicode="&#x5ac;" 
d="M143 1671v-313h-327v106h219v207h108z" />
    <glyph glyph-name="uni05AD" unicode="&#x5ad;" 
d="M110 -82q0 -92 58 -144.5t160 -52.5v-106q-156 0 -242 80t-86 223h110z" />
    <glyph glyph-name="uni05AE" unicode="&#x5ae;" 
d="M-455 1593q-28 0 -46.5 -19t-18.5 -56q0 -64 57 -86l-26 -72q-109 38 -109 158q0 65 41 106t106 41q47 0 87.5 -26.5t93.5 -100.5q40 -57 67.5 -80.5t59.5 -23.5q28 0 46.5 19t18.5 56q0 64 -57 86l26 72q109 -41 109 -158q0 -65 -40.5 -106t-102.5 -41q-50 0 -91.5 27
t-93.5 100q-44 62 -68.5 83t-58.5 21z" />
    <glyph glyph-name="uni05AF" unicode="&#x5af;" 
d="M-215 1618q0 89 63 152t152 63t152 -63t63 -152t-62 -152t-153 -63t-153 63t-62 152zM-96 1618q0 -40 28 -68t68 -28t68 28t28 68t-29 68t-67 28t-67 -28t-29 -68z" />
    <glyph glyph-name="sheva" unicode="&#x5b0;" 
d="M-80 -98q0 33 23.5 56.5t56.5 23.5q34 0 57 -24t23 -56t-24 -55t-56 -23t-56 23t-24 55zM-80 -305q0 34 24 57t56 23t56 -24t24 -56t-23.5 -56t-56.5 -24q-34 0 -57 23t-23 57z" />
    <glyph glyph-name="hatafsegol" unicode="&#x5b1;" 
d="M-301 -96q0 32 23 55t55 23q34 0 57 -23t23 -55q0 -34 -23 -57t-57 -23q-32 0 -55 23t-23 57zM-72 -96q0 32 23 55t55 23q34 0 57 -23t23 -55q0 -34 -23 -57t-57 -23q-32 0 -55 23t-23 57zM-186 -305q0 34 22.5 57t54.5 23q35 0 57.5 -23t22.5 -57q0 -32 -22.5 -56
t-57.5 -24q-32 0 -54.5 24t-22.5 56zM143 -98q0 34 23 57t55 23q34 0 57 -23t23 -57q0 -32 -23 -55t-57 -23q-32 0 -55 23t-23 55zM141 -305q0 34 24 57t56 23t56 -24t24 -56t-23.5 -56t-56.5 -24q-34 0 -57 23t-23 57z" />
    <glyph glyph-name="hatafpatah" unicode="&#x5b2;" 
d="M-270 -162v109h327v-109h-327zM113 -98q0 34 22.5 57t57.5 23q32 0 55.5 -23t23.5 -57q0 -32 -23.5 -55t-55.5 -23q-35 0 -57.5 23t-22.5 55zM113 -305q0 32 22.5 56t54.5 24q35 0 57.5 -24t22.5 -56q0 -34 -22.5 -57t-57.5 -23q-32 0 -54.5 23t-22.5 57z" />
    <glyph glyph-name="hatafqamats" unicode="&#x5b3;" 
d="M-160 -276v114h-110v109h327v-109h-106v-114h-111zM113 -98q0 34 22.5 57t57.5 23q32 0 55.5 -23t23.5 -57q0 -32 -23.5 -55t-55.5 -23q-35 0 -57.5 23t-22.5 55zM113 -305q0 32 22.5 56t54.5 24q35 0 57.5 -24t22.5 -56q0 -34 -22.5 -57t-57.5 -23q-32 0 -54.5 23
t-22.5 57z" />
    <glyph glyph-name="hiriq" unicode="&#x5b4;" 
d="M-80 -270q0 33 23.5 56.5t56.5 23.5q34 0 57 -24t23 -56t-24 -55t-56 -23t-56 23t-24 55z" />
    <glyph glyph-name="tsere" unicode="&#x5b5;" 
d="M-195 -268q0 34 24 57t56 23t56 -24t24 -56t-23.5 -56t-56.5 -24q-34 0 -57 23t-23 57zM37 -268q0 32 23 56t55 24q33 0 56.5 -23.5t23.5 -56.5q0 -34 -23 -57t-57 -23q-32 0 -55 23t-23 57z" />
    <glyph glyph-name="segol" unicode="&#x5b6;" 
d="M-195 -98q0 34 23 57t57 23t57 -24t23 -56t-24 -56t-56 -24t-56 23.5t-24 56.5zM37 -98q0 34 23 57t55 23q34 0 57 -23t23 -57t-24 -57t-56 -23t-55 24t-23 56zM-80 -305q0 32 24 55t56 23t56 -23t24 -55t-23.5 -56t-56.5 -24q-34 0 -57 24t-23 56z" />
    <glyph glyph-name="patah" unicode="&#x5b7;" 
d="M-164 -125h328v-106h-328v106z" />
    <glyph glyph-name="qamats" unicode="&#x5b8;" 
d="M-53 -348v117h-111v106h328v-106h-107v-117h-110z" />
    <glyph glyph-name="holam" unicode="&#x5b9;" 
d="M-80 1526q0 32 24 56t56 24t56 -24t24 -56t-23.5 -56t-56.5 -24q-34 0 -57 24t-23 56z" />
    <glyph glyph-name="uni05BA" unicode="&#x5ba;" 
d="M-80 1526q0 32 24 56t56 24t56 -24t24 -56t-23.5 -56t-56.5 -24q-34 0 -57 24t-23 56z" />
    <glyph glyph-name="qubuts" unicode="&#x5bb;" 
d="M-238 -96q0 34 23 57t55 23q34 0 57 -23t23 -57q0 -32 -23 -55t-57 -23q-32 0 -55 23t-23 55zM-80 -201q0 32 24 56t56 24t56 -24t24 -56t-23.5 -56t-56.5 -24q-34 0 -57 24t-23 56zM80 -305q0 34 24 57t56 23t56 -24t24 -56t-23.5 -56t-56.5 -24q-34 0 -57 23t-23 57z
" />
    <glyph glyph-name="dagesh" unicode="&#x5bc;" 
d="M-80 702q0 35 24 57.5t56 22.5t56 -22.5t24 -57.5q0 -32 -24 -54.5t-56 -22.5t-56 22.5t-24 54.5z" />
    <glyph glyph-name="meteg" unicode="&#x5bd;" 
d="M-55 -348v223h110v-223h-110z" />
    <glyph glyph-name="maqaf" unicode="&#x5be;" horiz-adv-x="784" 
d="M133 1356h572v-211h-572v211z" />
    <glyph glyph-name="rafe" unicode="&#x5bf;" 
d="M-164 1579h328v-106h-328v106z" />
    <glyph glyph-name="paseq" unicode="&#x5c0;" horiz-adv-x="1153" 
d="M500 -416v2423h153v-2423h-153z" />
    <glyph glyph-name="shindot" unicode="&#x5c1;" 
d="M-80 1526q0 32 24 56t56 24t56 -24t24 -56t-23.5 -56t-56.5 -24q-34 0 -57 24t-23 56z" />
    <glyph glyph-name="sindot" unicode="&#x5c2;" 
d="M-80 1526q0 32 24 56t56 24t56 -24t24 -56t-23.5 -56t-56.5 -24q-34 0 -57 24t-23 56z" />
    <glyph glyph-name="sofpasuq" unicode="&#x5c3;" horiz-adv-x="569" 
d="M186 874v207h197v-207h-197zM186 0v207h197v-207h-197z" />
    <glyph glyph-name="upper_dot" unicode="&#x5c4;" 
d="M-80 1638q0 32 24 56t56 24t56 -24t24 -56q0 -34 -24 -56.5t-56 -22.5t-56 22.5t-24 56.5z" />
    <glyph glyph-name="lowerdot" unicode="&#x5c5;" 
d="M-80 -328q0 33 23.5 56.5t56.5 23.5q34 0 57 -24t23 -56t-24 -55t-56 -23t-56 23t-24 55z" />
    <glyph glyph-name="uni05C6" unicode="&#x5c6;" horiz-adv-x="776" 
d="M154 752q0 184 33.5 285t107.5 145.5t233 44.5h129v-170h-135q-73 0 -112 -29t-55.5 -94.5t-16.5 -233.5v-530h377v-170h-561v752z" />
    <glyph glyph-name="qamatsqatan" unicode="&#x5c7;" 
d="M485 -205h-180l19 -160v-20h-109v20l16 160h-178v107h432v-107z" />
    <glyph glyph-name="alef" unicode="&#x5d0;" horiz-adv-x="1286" 
d="M125 1227h227l451 -621q150 140 178 398l23 223h190l-23 -219q-10 -107 -40 -193t-79.5 -161t-152.5 -177l361 -477h-234l-528 717q-43 -21 -69.5 -52.5t-45 -82.5t-43.5 -179l-80 -403h-194l84 399q36 171 66 242t75.5 115t122.5 75z" />
    <glyph glyph-name="bet" unicode="&#x5d1;" horiz-adv-x="1225" 
d="M129 1057v170h377q276 0 395 -118t119 -390v-549h133v-170h-1071v170h754v551q0 184 -74.5 260t-257.5 76h-375z" />
    <glyph glyph-name="gimel" unicode="&#x5d2;" horiz-adv-x="866" 
d="M260 1227q97 0 149.5 -15.5t86.5 -50t62.5 -104.5t80.5 -295l174 -762h-182l-113 504q-84 -21 -122.5 -51t-63.5 -89t-47 -184l-33 -180h-189l35 182q24 132 47 199t59 113t90 76.5t193 68.5q-50 212 -76 286t-57 103t-88 29h-135v170h129z" />
    <glyph glyph-name="dalet" unicode="&#x5d3;" horiz-adv-x="1135" 
d="M926 0h-185v1057h-700v170h1038v-170h-153v-1057z" />
    <glyph glyph-name="he" unicode="&#x5d4;" horiz-adv-x="1298" 
d="M356 0h-184v797h184v-797zM1135 0h-185v721q0 184 -74.5 260t-257.5 76h-466v170h469q276 0 395 -118t119 -390v-719z" />
    <glyph glyph-name="vav" unicode="&#x5d5;" horiz-adv-x="532" 
d="M174 1227h184v-1227h-184v1227z" />
    <glyph glyph-name="zayin" unicode="&#x5d6;" horiz-adv-x="662" 
d="M633 1049v-191l-109 37q-59 -31 -82 -58t-33 -64.5t-10 -94.5v-678h-184v670q0 106 40.5 172t137.5 98l-342 115v190z" />
    <glyph glyph-name="het" unicode="&#x5d7;" horiz-adv-x="1348" 
d="M999 721q0 182 -73.5 259t-257.5 77h-310v-1057h-184v1227h496q276 0 395 -118t119 -390v-719h-185v721z" />
    <glyph glyph-name="tet" unicode="&#x5d8;" horiz-adv-x="1337" 
d="M659 -20q-255 0 -375 128.5t-120 395.5v723h184v-717q0 -186 73.5 -272t240.5 -86q196 0 284 121t88 401q0 208 -44 304.5t-150 96.5q-102 0 -197 -65v176q78 61 215 61t215.5 -59t116 -185.5t37.5 -328.5q0 -359 -137 -526.5t-431 -167.5z" />
    <glyph glyph-name="yod" unicode="&#x5d9;" horiz-adv-x="532" 
d="M174 1227h184v-645h-184v645z" />
    <glyph glyph-name="finalkaf" unicode="&#x5da;" horiz-adv-x="1094" 
d="M930 -385h-185v1106q0 182 -73.5 259t-257.5 77h-375v170h377q276 0 395 -118t119 -390v-1104z" />
    <glyph glyph-name="kaf" unicode="&#x5db;" horiz-adv-x="1075" 
d="M963 596q0 -596 -564 -596h-319v170h323q191 0 282 106t91 318v39q0 213 -91.5 318.5t-281.5 105.5h-323v170h319q564 0 564 -596v-35z" />
    <glyph glyph-name="lamed" unicode="&#x5dc;" horiz-adv-x="1085" 
d="M193 162q191 71 328 179.5t208.5 236.5t71.5 260q0 219 -234 219h-497v608h184v-438h332q401 0 401 -357q0 -292 -215 -538.5t-579 -376.5v207z" />
    <glyph glyph-name="finalmem" unicode="&#x5dd;" horiz-adv-x="1389" 
d="M1225 0h-1051v1227h537q276 0 395 -118t119 -390v-719zM358 1057v-887h682v551q0 182 -73.5 259t-257.5 77h-351z" />
    <glyph glyph-name="mem" unicode="&#x5de;" horiz-adv-x="1407" 
d="M778 1247q242 0 353.5 -147.5t111.5 -468.5v-631h-602v170h416v438q0 245 -63 356t-214 111q-135 0 -222 -122.5t-161 -430.5l-125 -522h-198l137 537q47 187 94 305l-250 385h217l125 -203q78 118 167 170.5t214 52.5z" />
    <glyph glyph-name="finalnun" unicode="&#x5df;" horiz-adv-x="532" 
d="M174 1227h184v-1612h-184v1612z" />
    <glyph glyph-name="nun" unicode="&#x5e0;" horiz-adv-x="797" 
d="M633 0h-561v170h377v530q0 160 -16.5 229t-55.5 98.5t-113 29.5h-135v170h129q160 0 233.5 -44.5t107.5 -146t34 -284.5v-752z" />
    <glyph glyph-name="samekh" unicode="&#x5e1;" horiz-adv-x="1343" 
d="M133 643q0 121 29.5 242t68.5 172h-180v170h664q276 0 396 -117.5t120 -390.5v-88q0 -320 -143.5 -485.5t-419.5 -165.5q-274 0 -404.5 154.5t-130.5 473.5v35zM395 1057q-67 -119 -67 -406v-53q0 -220 88.5 -334t255.5 -114q191 0 276.5 113t85.5 370v88q0 186 -71 261
t-250 75h-318z" />
    <glyph glyph-name="ayin" unicode="&#x5e2;" horiz-adv-x="1192" 
d="M41 162q276 0 434 51l-371 1014h203l328 -936q140 100 201 309.5t61 626.5h193q0 -463 -98.5 -724t-321 -388t-629.5 -148v195z" />
    <glyph glyph-name="finalpe" unicode="&#x5e3;" horiz-adv-x="1276" 
d="M598 1227q276 0 395 -117t119 -391v-1104h-184v1106q0 184 -74.5 260t-257.5 76h-277v-346h244v-170h-430v686h465z" />
    <glyph glyph-name="pe" unicode="&#x5e4;" horiz-adv-x="1249" 
d="M950 682q0 189 -83 282t-261 93h-276v-346h243v-170h-430v686h465q268 0 398.5 -133.5t130.5 -415.5v-82q0 -596 -564 -596h-419v170h424q190 0 281 105.5t91 318.5v88z" />
    <glyph glyph-name="finaltsadi" unicode="&#x5e5;" horiz-adv-x="1032" 
d="M512 -385h-184v930q0 89 -22 161.5t-73 166t-223 354.5h217q172 -266 221.5 -379t59.5 -232q92 23 144 63t78.5 107.5t37.5 192.5l20 248h193l-27 -279q-19 -216 -119 -324.5t-323 -152.5v-856z" />
    <glyph glyph-name="tsadi" unicode="&#x5e6;" horiz-adv-x="1116" 
d="M1028 0h-944v170h715l-789 1057h230l381 -518q77 33 112 97.5t47 197.5l23 223h190l-20 -219q-14 -140 -41.5 -212.5t-78.5 -120.5t-144 -85l319 -432v-158z" />
    <glyph glyph-name="qof" unicode="&#x5e7;" horiz-adv-x="1208" 
d="M358 797v-1182h-184v1182h184zM123 1227h518q247 0 351 -88.5t104 -292.5q0 -282 -167.5 -517.5t-453.5 -355.5v211q209 94 321.5 261.5t112.5 375.5q0 134 -58.5 185t-201.5 51h-526v170z" />
    <glyph glyph-name="resh" unicode="&#x5e8;" horiz-adv-x="1094" 
d="M930 0h-185v721q0 182 -73.5 259t-257.5 77h-375v170h377q276 0 395 -118t119 -390v-719z" />
    <glyph glyph-name="shin" unicode="&#x5e9;" horiz-adv-x="1495" 
d="M668 1227h190l-31 -328q-15 -167 -40.5 -241.5t-75.5 -115t-166 -71.5l-150 -35l49 -258h24q201 0 322 23.5t191 73.5t108.5 141.5t61.5 285.5l63 525h193l-64 -518q-31 -262 -88 -388.5t-161 -196t-286.5 -101t-522.5 -33.5l-234 1237h191l123 -631l73 14
q108 24 151 84.5t54 206.5z" />
    <glyph glyph-name="tav" unicode="&#x5ea;" horiz-adv-x="1415" 
d="M262 1057h-190v170h663q276 0 396 -117.5t120 -390.5v-719h-184v721q0 184 -74.5 260t-259.5 76h-287v-582q0 -184 -33.5 -285t-107.5 -145.5t-233 -44.5h-11v170h17q70 0 110 25.5t57 79.5t17 163v619z" />
    <glyph glyph-name="vavvav" unicode="&#x5f0;" horiz-adv-x="1042" 
d="M174 1227h184v-1227h-184v1227zM684 1227h184v-1227h-184v1227z" />
    <glyph glyph-name="vavyod" unicode="&#x5f1;" horiz-adv-x="1042" 
d="M174 1227h184v-645h-184v645zM684 1227h184v-1227h-184v1227z" />
    <glyph glyph-name="yodyod" unicode="&#x5f2;" horiz-adv-x="1042" 
d="M174 1227h184v-645h-184v645zM684 1227h184v-645h-184v645z" />
    <glyph glyph-name="geresh" unicode="&#x5f3;" horiz-adv-x="788" 
d="M352 1030h-137l137 635h232z" />
    <glyph glyph-name="gershayim" unicode="&#x5f4;" horiz-adv-x="1235" 
d="M352 1030h-137l137 635h232zM799 1030h-137l137 635h231z" />
    <glyph glyph-name="sheqel" unicode="&#x20aa;" horiz-adv-x="1739" 
d="M705 1227q173 0 269 -53t140.5 -169.5t44.5 -318.5v-264h-184v252q0 153 -24.5 232.5t-81.5 115t-169 35.5h-335v-1057h-185v1227h525zM578 0v729h184v-559h340q111 0 167.5 35.5t80.5 117t24 230.5v674h185v-686q0 -203 -45.5 -320t-142 -169t-267.5 -52h-526z" />
    <glyph glyph-name="uni25CC" unicode="&#x25cc;" horiz-adv-x="1217" 
d="M984 918q0 -54 -52 -54q-56 0 -56 54t56 54q52 0 52 -54zM836 1016q0 -53 -52 -53q-56 0 -56 53q0 55 56 55q52 0 52 -55zM1083 770q0 -55 -55 -55q-53 0 -53 55q0 53 55 53q53 0 53 -53zM1119 596q0 -54 -52 -54q-56 0 -56 54t56 54q52 0 52 -54zM662 1053
q0 -55 -54 -55t-54 55q0 53 54 53t54 -53zM489 1016q0 -53 -55 -53q-53 0 -53 53q0 55 53 55q55 0 55 -55zM1083 422q0 -53 -55 -53q-53 0 -53 53q0 55 53 55q55 0 55 -55zM341 918q0 -54 -54 -54t-54 51q0 57 54 57t54 -54zM984 272q0 -53 -52 -53q-56 0 -56 53q0 55 56 55
q52 0 52 -55zM836 174q0 -52 -52 -52q-56 0 -56 52q0 56 56 56q52 0 52 -56zM242 770q0 -55 -52 -55q-56 0 -56 55q0 53 54 53t54 -53zM206 596q0 -54 -52 -54q-56 0 -56 54t56 54q52 0 52 -54zM662 141q0 -55 -54 -55t-54 55q0 53 54 53t54 -53zM242 422q0 -53 -54 -53
t-54 53q0 55 54 55t54 -55zM489 178q0 -56 -55 -56q-53 0 -53 52q0 56 53 56q55 0 55 -52zM341 272q0 -53 -54 -53t-54 53q0 55 54 55t54 -55z" />
    <glyph glyph-name="uniFB1D" unicode="&#xfb1d;" horiz-adv-x="532" 
d="M174 1227h184v-645h-184v645zM186 371q0 35 24 57.5t56 22.5t56 -22.5t24 -57.5q0 -32 -24 -54.5t-56 -22.5t-56 22.5t-24 54.5z" />
    <glyph glyph-name="uniFB1E" unicode="&#xfb1e;" 
d="M330 1763q0 -145 -90 -231t-240 -86t-240 87.5t-90 229.5h162q0 -77 45 -123.5t123 -46.5q77 0 122.5 48t45.5 122h162z" />
    <glyph glyph-name="yodyod_patah" unicode="&#xfb1f;" horiz-adv-x="1042" 
d="M174 1227h184v-645h-184v645zM684 1227h184v-645h-184v645zM358 422h328v-106h-328v106z" />
    <glyph glyph-name="alternativeayin" unicode="&#xfb20;" horiz-adv-x="1192" 
d="M41 162q276 0 434 51l-371 1014h203l328 -936q140 100 201 309.5t61 626.5h193q0 -463 -98.5 -724t-321 -388t-629.5 -148v195z" />
    <glyph glyph-name="alefwide" unicode="&#xfb21;" horiz-adv-x="1286" 
d="M125 1227h227l451 -621q150 140 178 398l23 223h190l-23 -219q-10 -107 -40 -193t-79.5 -161t-152.5 -177l361 -477h-234l-528 717q-43 -21 -69.5 -52.5t-45 -82.5t-43.5 -179l-80 -403h-194l84 399q36 171 66 242t75.5 115t122.5 75z" />
    <glyph glyph-name="daletwide" unicode="&#xfb22;" horiz-adv-x="1135" 
d="M926 0h-185v1057h-700v170h1038v-170h-153v-1057z" />
    <glyph glyph-name="hewide" unicode="&#xfb23;" horiz-adv-x="1298" 
d="M356 0h-184v797h184v-797zM1135 0h-185v721q0 184 -74.5 260t-257.5 76h-466v170h469q276 0 395 -118t119 -390v-719z" />
    <glyph glyph-name="kafwide" unicode="&#xfb24;" horiz-adv-x="1075" 
d="M963 596q0 -596 -564 -596h-319v170h323q191 0 282 106t91 318v39q0 213 -91.5 318.5t-281.5 105.5h-323v170h319q564 0 564 -596v-35z" />
    <glyph glyph-name="lamedwide" unicode="&#xfb25;" horiz-adv-x="1085" 
d="M193 162q191 71 328 179.5t208.5 236.5t71.5 260q0 219 -234 219h-497v608h184v-438h332q401 0 401 -357q0 -292 -215 -538.5t-579 -376.5v207z" />
    <glyph glyph-name="finalmemwide" unicode="&#xfb26;" horiz-adv-x="1389" 
d="M1225 0h-1051v1227h537q276 0 395 -118t119 -390v-719zM358 1057v-887h682v551q0 182 -73.5 259t-257.5 77h-351z" />
    <glyph glyph-name="reshwide" unicode="&#xfb27;" horiz-adv-x="1094" 
d="M930 0h-185v721q0 182 -73.5 259t-257.5 77h-375v170h377q276 0 395 -118t119 -390v-719z" />
    <glyph glyph-name="tavwide" unicode="&#xfb28;" horiz-adv-x="1415" 
d="M262 1057h-190v170h663q276 0 396 -117.5t120 -390.5v-719h-184v721q0 184 -74.5 260t-259.5 76h-287v-582q0 -184 -33.5 -285t-107.5 -145.5t-233 -44.5h-11v170h17q70 0 110 25.5t57 79.5t17 163v619z" />
    <glyph glyph-name="alt_plussign" unicode="&#xfb29;" horiz-adv-x="1151" 
d="M1063 514h-973v186h391v428h187v-428h395v-186z" />
    <glyph glyph-name="shinshindot" unicode="&#xfb2a;" horiz-adv-x="1495" 
d="M668 1227h190l-31 -328q-15 -167 -40.5 -241.5t-75.5 -115t-166 -71.5l-150 -35l49 -258h24q201 0 322 23.5t191 73.5t108.5 141.5t61.5 285.5l63 525h193l-64 -518q-31 -262 -88 -388.5t-161 -196t-286.5 -101t-522.5 -33.5l-234 1237h191l123 -631l73 14
q108 24 151 84.5t54 206.5zM1245 1526q0 32 24 56t56 24t56 -24t24 -56t-23.5 -56t-56.5 -24q-34 0 -57 24t-23 56z" />
    <glyph glyph-name="shinsindot" unicode="&#xfb2b;" horiz-adv-x="1495" 
d="M668 1227h190l-31 -328q-15 -167 -40.5 -241.5t-75.5 -115t-166 -71.5l-150 -35l49 -258h24q201 0 322 23.5t191 73.5t108.5 141.5t61.5 285.5l63 525h193l-64 -518q-31 -262 -88 -388.5t-161 -196t-286.5 -101t-522.5 -33.5l-234 1237h191l123 -631l73 14
q108 24 151 84.5t54 206.5zM72 1526q0 32 24 56t56 24t56 -24t24 -56t-23.5 -56t-56.5 -24q-34 0 -57 24t-23 56z" />
    <glyph glyph-name="shindageshshindot" unicode="&#xfb2c;" horiz-adv-x="1495" 
d="M668 1227h190l-31 -328q-15 -167 -40.5 -241.5t-75.5 -115t-166 -71.5l-150 -35l49 -258h24q201 0 322 23.5t191 73.5t108.5 141.5t61.5 285.5l63 525h193l-64 -518q-31 -262 -88 -388.5t-161 -196t-286.5 -101t-522.5 -33.5l-234 1237h191l123 -631l73 14
q108 24 151 84.5t54 206.5zM1280 1526q0 32 24 56t56 24t56 -24t24 -56t-23.5 -56t-56.5 -24q-34 0 -57 24t-23 56zM878 623q0 35 24 57.5t56 22.5t56 -22.5t24 -57.5q0 -32 -24 -54.5t-56 -22.5t-56 22.5t-24 54.5z" />
    <glyph glyph-name="shindageshsindot" unicode="&#xfb2d;" horiz-adv-x="1495" 
d="M668 1227h190l-31 -328q-15 -167 -40.5 -241.5t-75.5 -115t-166 -71.5l-150 -35l49 -258h24q201 0 322 23.5t191 73.5t108.5 141.5t61.5 285.5l63 525h193l-64 -518q-31 -262 -88 -388.5t-161 -196t-286.5 -101t-522.5 -33.5l-234 1237h191l123 -631l73 14
q108 24 151 84.5t54 206.5zM878 623q0 35 24 57.5t56 22.5t56 -22.5t24 -57.5q0 -32 -24 -54.5t-56 -22.5t-56 22.5t-24 54.5zM65 1526q0 32 24 56t56 24t56 -24t24 -56t-23.5 -56t-56.5 -24q-34 0 -57 24t-23 56z" />
    <glyph glyph-name="alefpatah" unicode="&#xfb2e;" horiz-adv-x="1286" 
d="M125 1227h227l451 -621q150 140 178 398l23 223h190l-23 -219q-10 -107 -40 -193t-79.5 -161t-152.5 -177l361 -477h-234l-528 717q-43 -21 -69.5 -52.5t-45 -82.5t-43.5 -179l-80 -403h-194l84 399q36 171 66 242t75.5 115t122.5 75zM479 -125h328v-106h-328v106z" />
    <glyph glyph-name="alefqamats" unicode="&#xfb2f;" horiz-adv-x="1286" 
d="M125 1227h227l451 -621q150 140 178 398l23 223h190l-23 -219q-10 -107 -40 -193t-79.5 -161t-152.5 -177l361 -477h-234l-528 717q-43 -21 -69.5 -52.5t-45 -82.5t-43.5 -179l-80 -403h-194l84 399q36 171 66 242t75.5 115t122.5 75zM590 -348v117h-111v106h328v-106
h-107v-117h-110z" />
    <glyph glyph-name="alefmapiq" unicode="&#xfb30;" horiz-adv-x="1286" 
d="M125 1227h227l451 -621q150 140 178 398l23 223h190l-23 -219q-10 -107 -40 -193t-79.5 -161t-152.5 -177l361 -477h-234l-528 717q-43 -21 -69.5 -52.5t-45 -82.5t-43.5 -179l-80 -403h-194l84 399q36 171 66 242t75.5 115t122.5 75zM489 117q0 35 24 57.5t56 22.5
t56 -22.5t24 -57.5q0 -32 -24 -54.5t-56 -22.5t-56 22.5t-24 54.5z" />
    <glyph glyph-name="betdagesh" unicode="&#xfb31;" horiz-adv-x="1225" 
d="M129 1057v170h377q276 0 395 -118t119 -390v-549h133v-170h-1071v170h754v551q0 184 -74.5 260t-257.5 76h-375zM387 702q0 35 24 57.5t56 22.5t56 -22.5t24 -57.5q0 -32 -24 -54.5t-56 -22.5t-56 22.5t-24 54.5z" />
    <glyph glyph-name="gimeldagesh" unicode="&#xfb32;" horiz-adv-x="866" 
d="M260 1227q97 0 149.5 -15.5t86.5 -50t62.5 -104.5t80.5 -295l174 -762h-182l-113 504q-84 -21 -122.5 -51t-63.5 -89t-47 -184l-33 -180h-189l35 182q24 132 47 199t59 113t90 76.5t193 68.5q-50 212 -76 286t-57 103t-88 29h-135v170h129zM121 778q0 35 24 57.5t56 22.5
t56 -22.5t24 -57.5q0 -32 -24 -54.5t-56 -22.5t-56 22.5t-24 54.5z" />
    <glyph glyph-name="daletdagesh" unicode="&#xfb33;" horiz-adv-x="1135" 
d="M926 0h-185v1057h-700v170h1038v-170h-153v-1057zM303 702q0 35 24 57.5t56 22.5t56 -22.5t24 -57.5q0 -32 -24 -54.5t-56 -22.5t-56 22.5t-24 54.5z" />
    <glyph glyph-name="hedagesh" unicode="&#xfb34;" horiz-adv-x="1298" 
d="M356 0h-184v797h184v-797zM1135 0h-185v721q0 184 -74.5 260t-257.5 76h-466v170h469q276 0 395 -118t119 -390v-719zM561 702q0 35 24 57.5t56 22.5t56 -22.5t24 -57.5q0 -32 -24 -54.5t-56 -22.5t-56 22.5t-24 54.5z" />
    <glyph glyph-name="vavdagesh" unicode="&#xfb35;" horiz-adv-x="532" 
d="M174 1227h184v-1227h-184v1227zM-70 702q0 35 24 57.5t56 22.5t56 -22.5t24 -57.5q0 -32 -24 -54.5t-56 -22.5t-56 22.5t-24 54.5z" />
    <glyph glyph-name="zayindagesh" unicode="&#xfb36;" horiz-adv-x="662" 
d="M633 1049v-191l-109 37q-59 -31 -82 -58t-33 -64.5t-10 -94.5v-678h-184v670q0 106 40.5 172t137.5 98l-342 115v190zM-53 702q0 35 24 57.5t56 22.5t56 -22.5t24 -57.5q0 -32 -24 -54.5t-56 -22.5t-56 22.5t-24 54.5z" />
    <glyph glyph-name="tetdagesh" unicode="&#xfb38;" horiz-adv-x="1337" 
d="M659 -20q-255 0 -375 128.5t-120 395.5v723h184v-717q0 -186 73.5 -272t240.5 -86q196 0 284 121t88 401q0 208 -44 304.5t-150 96.5q-102 0 -197 -65v176q78 61 215 61t215.5 -59t116 -185.5t37.5 -328.5q0 -359 -137 -526.5t-431 -167.5zM614 702q0 35 24 57.5t56 22.5
t56 -22.5t24 -57.5q0 -32 -24 -54.5t-56 -22.5t-56 22.5t-24 54.5z" />
    <glyph glyph-name="yoddagesh" unicode="&#xfb39;" horiz-adv-x="532" 
d="M174 1227h184v-645h-184v645zM-70 874q0 35 24 57.5t56 22.5t56 -22.5t24 -57.5q0 -32 -24 -54.5t-56 -22.5t-56 22.5t-24 54.5z" />
    <glyph glyph-name="finalkafdagesh" unicode="&#xfb3a;" horiz-adv-x="1094" 
d="M930 -385h-185v1106q0 182 -73.5 259t-257.5 77h-375v170h377q276 0 395 -118t119 -390v-1104zM328 702q0 35 24 57.5t56 22.5t56 -22.5t24 -57.5q0 -32 -24 -54.5t-56 -22.5t-56 22.5t-24 54.5z" />
    <glyph glyph-name="kafdagesh" unicode="&#xfb3b;" horiz-adv-x="1075" 
d="M963 596q0 -596 -564 -596h-319v170h323q191 0 282 106t91 318v39q0 213 -91.5 318.5t-281.5 105.5h-323v170h319q564 0 564 -596v-35zM385 633q0 35 24 57.5t56 22.5t56 -22.5t24 -57.5q0 -32 -24 -54.5t-56 -22.5t-56 22.5t-24 54.5z" />
    <glyph glyph-name="lameddagesh" unicode="&#xfb3c;" horiz-adv-x="1085" 
d="M193 162q191 71 328 179.5t208.5 236.5t71.5 260q0 219 -234 219h-497v608h184v-438h332q401 0 401 -357q0 -292 -215 -538.5t-579 -376.5v207zM348 718q0 35 24 57.5t56 22.5t56 -22.5t24 -57.5q0 -32 -24 -54.5t-56 -22.5t-56 22.5t-24 54.5z" />
    <glyph glyph-name="memdagesh" unicode="&#xfb3e;" horiz-adv-x="1407" 
d="M778 1247q242 0 353.5 -147.5t111.5 -468.5v-631h-602v170h416v438q0 245 -63 356t-214 111q-135 0 -222 -122.5t-161 -430.5l-125 -522h-198l137 537q47 187 94 305l-250 385h217l125 -203q78 118 167 170.5t214 52.5zM680 718q0 35 24 57.5t56 22.5t56 -22.5t24 -57.5
q0 -32 -24 -54.5t-56 -22.5t-56 22.5t-24 54.5z" />
    <glyph glyph-name="nundagesh" unicode="&#xfb40;" horiz-adv-x="797" 
d="M633 0h-561v170h377v530q0 160 -16.5 229t-55.5 98.5t-113 29.5h-135v170h129q160 0 233.5 -44.5t107.5 -146t34 -284.5v-752zM121 702q0 35 24 57.5t56 22.5t56 -22.5t24 -57.5q0 -32 -24 -54.5t-56 -22.5t-56 22.5t-24 54.5z" />
    <glyph glyph-name="samekhdagesh" unicode="&#xfb41;" horiz-adv-x="1343" 
d="M133 643q0 121 29.5 242t68.5 172h-180v170h664q276 0 396 -117.5t120 -390.5v-88q0 -320 -143.5 -485.5t-419.5 -165.5q-274 0 -404.5 154.5t-130.5 473.5v35zM395 1057q-67 -119 -67 -406v-53q0 -220 88.5 -334t255.5 -114q191 0 276.5 113t85.5 370v88q0 186 -71 261
t-250 75h-318zM598 702q0 35 24 57.5t56 22.5t56 -22.5t24 -57.5q0 -32 -24 -54.5t-56 -22.5t-56 22.5t-24 54.5z" />
    <glyph glyph-name="finalpedagesh" unicode="&#xfb43;" horiz-adv-x="1276" 
d="M598 1227q276 0 395 -117t119 -391v-1104h-184v1106q0 184 -74.5 260t-257.5 76h-277v-346h244v-170h-430v686h465zM485 888q0 35 24 57.5t56 22.5t56 -22.5t24 -57.5q0 -32 -24 -54.5t-56 -22.5t-56 22.5t-24 54.5z" />
    <glyph glyph-name="pedagesh" unicode="&#xfb44;" horiz-adv-x="1249" 
d="M950 682q0 189 -83 282t-261 93h-276v-346h243v-170h-430v686h465q268 0 398.5 -133.5t130.5 -415.5v-82q0 -596 -564 -596h-419v170h424q190 0 281 105.5t91 318.5v88zM477 882q0 35 24 57.5t56 22.5t56 -22.5t24 -57.5q0 -32 -24 -54.5t-56 -22.5t-56 22.5t-24 54.5z
" />
    <glyph glyph-name="tsadidagesh" unicode="&#xfb46;" horiz-adv-x="1116" 
d="M1028 0h-944v170h715l-789 1057h230l381 -518q77 33 112 97.5t47 197.5l23 223h190l-20 -219q-14 -140 -41.5 -212.5t-78.5 -120.5t-144 -85l319 -432v-158zM248 402q0 35 24 57.5t56 22.5t56 -22.5t24 -57.5q0 -32 -24 -54.5t-56 -22.5t-56 22.5t-24 54.5z" />
    <glyph glyph-name="qofdagesh" unicode="&#xfb47;" horiz-adv-x="1208" 
d="M358 797v-1182h-184v1182h184zM123 1227h518q247 0 351 -88.5t104 -292.5q0 -282 -167.5 -517.5t-453.5 -355.5v211q209 94 321.5 261.5t112.5 375.5q0 134 -58.5 185t-201.5 51h-526v170zM516 802q0 35 24 57.5t56 22.5t56 -22.5t24 -57.5q0 -32 -24 -54.5t-56 -22.5
t-56 22.5t-24 54.5z" />
    <glyph glyph-name="reshdagesh" unicode="&#xfb48;" horiz-adv-x="1094" 
d="M930 0h-185v721q0 182 -73.5 259t-257.5 77h-375v170h377q276 0 395 -118t119 -390v-719zM328 702q0 35 24 57.5t56 22.5t56 -22.5t24 -57.5q0 -32 -24 -54.5t-56 -22.5t-56 22.5t-24 54.5z" />
    <glyph glyph-name="shindagesh" unicode="&#xfb49;" horiz-adv-x="1495" 
d="M668 1227h190l-31 -328q-15 -167 -40.5 -241.5t-75.5 -115t-166 -71.5l-150 -35l49 -258h24q201 0 322 23.5t191 73.5t108.5 141.5t61.5 285.5l63 525h193l-64 -518q-31 -262 -88 -388.5t-161 -196t-286.5 -101t-522.5 -33.5l-234 1237h191l123 -631l73 14
q108 24 151 84.5t54 206.5zM872 623q0 35 24 57.5t56 22.5t56 -22.5t24 -57.5q0 -32 -24 -54.5t-56 -22.5t-56 22.5t-24 54.5z" />
    <glyph glyph-name="tavdagesh" unicode="&#xfb4a;" horiz-adv-x="1415" 
d="M262 1057h-190v170h663q276 0 396 -117.5t120 -390.5v-719h-184v721q0 184 -74.5 260t-259.5 76h-287v-582q0 -184 -33.5 -285t-107.5 -145.5t-233 -44.5h-11v170h17q70 0 110 25.5t57 79.5t17 163v619zM657 702q0 35 24 57.5t56 22.5t56 -22.5t24 -57.5q0 -32 -24 -54.5
t-56 -22.5t-56 22.5t-24 54.5z" />
    <glyph glyph-name="vavholam" unicode="&#xfb4b;" horiz-adv-x="532" 
d="M174 1227h184v-1227h-184v1227zM186 1526q0 32 24 56t56 24t56 -24t24 -56t-23.5 -56t-56.5 -24q-34 0 -57 24t-23 56z" />
    <glyph glyph-name="betrafe" unicode="&#xfb4c;" horiz-adv-x="1225" 
d="M129 1057v170h377q276 0 395 -118t119 -390v-549h133v-170h-1071v170h754v551q0 184 -74.5 260t-257.5 76h-375zM352 1579h328v-106h-328v106z" />
    <glyph glyph-name="kafrafe" unicode="&#xfb4d;" horiz-adv-x="1075" 
d="M963 596q0 -596 -564 -596h-319v170h323q191 0 282 106t91 318v39q0 213 -91.5 318.5t-281.5 105.5h-323v170h319q564 0 564 -596v-35zM305 1579h328v-106h-328v106z" />
    <glyph glyph-name="perafe" unicode="&#xfb4e;" horiz-adv-x="1249" 
d="M950 682q0 189 -83 282t-261 93h-276v-346h243v-170h-430v686h465q268 0 398.5 -133.5t130.5 -415.5v-82q0 -596 -564 -596h-419v170h424q190 0 281 105.5t91 318.5v88zM414 1579h328v-106h-328v106z" />
    <glyph glyph-name="aleflamed" unicode="&#xfb4f;" horiz-adv-x="1286" 
d="M238 1071h-158v594h186v-438h86l451 -621q150 140 178 398l23 223h190l-23 -219q-10 -107 -40 -193t-79.5 -161t-152.5 -177l361 -477h-234z" />
    <glyph glyph-name="lamedholamdagesh" horiz-adv-x="1085" 
d="M193 162q191 71 328 179.5t208.5 236.5t71.5 260q0 219 -234 219h-497v608h184v-438h332q401 0 401 -357q0 -292 -215 -538.5t-579 -376.5v207zM-149 1526q0 32 24 56t56 24t56 -24t24 -56t-23.5 -56t-56.5 -24q-34 0 -57 24t-23 56zM346 722q0 35 24 57.5t56 22.5
t56 -22.5t24 -57.5q0 -32 -24 -54.5t-56 -22.5t-56 22.5t-24 54.5z" />
    <glyph glyph-name="lamedholam" horiz-adv-x="1085" 
d="M193 162q191 71 328 179.5t208.5 236.5t71.5 260q0 219 -234 219h-497v608h184v-438h332q401 0 401 -357q0 -292 -215 -538.5t-579 -376.5v207zM-149 1526q0 32 24 56t56 24t56 -24t24 -56t-23.5 -56t-56.5 -24q-34 0 -57 24t-23 56z" />
    <glyph glyph-name="finalkafqamats" horiz-adv-x="1094" 
d="M930 -385h-185v1106q0 182 -73.5 259t-257.5 77h-375v170h377q276 0 395 -118t119 -390v-1104zM332 494v117h-111v106h328v-106h-107v-117h-110z" />
    <glyph glyph-name="finalkafsheva" horiz-adv-x="1094" 
d="M930 -385h-185v1106q0 182 -73.5 259t-257.5 77h-375v170h377q276 0 395 -118t119 -390v-1104zM328 713q0 33 23.5 56.5t56.5 23.5q34 0 57 -24t23 -56t-24 -55t-56 -23t-56 23t-24 55zM328 506q0 34 24 57t56 23t56 -24t24 -56t-23.5 -56t-56.5 -24q-34 0 -57 23t-23 57
z" />
    <glyph glyph-name="aleflamedhatafsegol" horiz-adv-x="1286" 
d="M238 1071h-158v594h186v-438h86l451 -621q150 140 178 398l23 223h190l-23 -219q-10 -107 -40 -193t-79.5 -161t-152.5 -177l361 -477h-234zM363 -96q0 32 23 55t55 23q34 0 57 -23t23 -55q0 -34 -23 -57t-57 -23q-32 0 -55 23t-23 57zM592 -96q0 32 23 55t55 23
q34 0 57 -23t23 -55q0 -34 -23 -57t-57 -23q-32 0 -55 23t-23 57zM478 -305q0 34 22.5 57t54.5 23q35 0 57.5 -23t22.5 -57q0 -32 -22.5 -56t-57.5 -24q-32 0 -54.5 24t-22.5 56zM807 -98q0 34 23 57t55 23q34 0 57 -23t23 -57q0 -32 -23 -55t-57 -23q-32 0 -55 23t-23 55z
M805 -305q0 34 24 57t56 23t56 -24t24 -56t-23.5 -56t-56.5 -24q-34 0 -57 23t-23 57z" />
    <glyph glyph-name="aleflamedsegol" horiz-adv-x="1286" 
d="M238 1071h-158v594h186v-438h86l451 -621q150 140 178 398l23 223h190l-23 -219q-10 -107 -40 -193t-79.5 -161t-152.5 -177l361 -477h-234zM450 -98q0 34 23 57t57 23t57 -24t23 -56t-24 -56t-56 -24t-56 23.5t-24 56.5zM682 -98q0 34 23 57t55 23q34 0 57 -23t23 -57
t-24 -57t-56 -23t-55 24t-23 56zM565 -305q0 32 24 55t56 23t56 -23t24 -55t-23.5 -56t-56.5 -24q-34 0 -57 24t-23 56z" />
    <glyph glyph-name="aleflamedtsere" horiz-adv-x="1286" 
d="M238 1071h-158v594h186v-438h86l451 -621q150 140 178 398l23 223h190l-23 -219q-10 -107 -40 -193t-79.5 -161t-152.5 -177l361 -477h-234zM456 -268q0 34 24 57t56 23t56 -24t24 -56t-23.5 -56t-56.5 -24q-34 0 -57 23t-23 57zM688 -268q0 32 23 56t55 24
q33 0 56.5 -23.5t23.5 -56.5q0 -34 -23 -57t-57 -23q-32 0 -55 23t-23 57z" />
    <glyph glyph-name="alternativelamed" horiz-adv-x="1085" 
d="M193 162q191 71 328 179.5t208.5 236.5t71.5 260q0 219 -234 219h-497v608h184v-438h332q401 0 401 -357q0 -292 -215 -538.5t-579 -376.5v207z" />
    <glyph glyph-name="alefdagesh" horiz-adv-x="1286" 
d="M125 1227h227l451 -621q150 140 178 398l23 223h190l-23 -219q-10 -107 -40 -193t-79.5 -161t-152.5 -177l361 -477h-234l-528 717q-43 -21 -69.5 -52.5t-45 -82.5t-43.5 -179l-80 -403h-194l84 399q36 171 66 242t75.5 115t122.5 75zM489 117q0 35 24 57.5t56 22.5
t56 -22.5t24 -57.5q0 -32 -24 -54.5t-56 -22.5t-56 22.5t-24 54.5z" />
    <glyph glyph-name="uni05B105BD" 
d="M-474 -96q0 32 23 55t55 23q34 0 57 -23t23 -55q0 -34 -23 -57t-57 -23q-32 0 -55 23t-23 57zM-245 -96q0 32 23 55t55 23q34 0 57 -23t23 -55q0 -34 -23 -57t-57 -23q-32 0 -55 23t-23 57zM-359 -305q0 34 22.5 57t54.5 23q35 0 57.5 -23t22.5 -57q0 -32 -22.5 -56
t-57.5 -24q-32 0 -54.5 24t-22.5 56zM203 -98q0 34 23 57t55 23q34 0 57 -23t23 -57q0 -32 -23 -55t-57 -23q-32 0 -55 23t-23 55zM203 -305q0 34 23 57t55 23t56 -24t24 -56t-23.5 -56t-56.5 -24q-34 0 -56 23t-22 57zM3 -385v367h110v-367h-110z" />
    <glyph glyph-name="uni05B205BD" 
d="M-494 -162v109h327v-109h-327zM123 -98q0 34 22.5 57t57.5 23q32 0 55.5 -23t23.5 -57q0 -32 -23.5 -55t-55.5 -23q-35 0 -57.5 23t-22.5 55zM123 -305q0 32 22.5 56t54.5 24q35 0 57.5 -24t22.5 -56q0 -34 -22.5 -57t-57.5 -23q-32 0 -54.5 23t-22.5 57zM-77 -385v367
h110v-367h-110z" />
    <glyph glyph-name="uni05B305BD" 
d="M-310 -276v114h-110v109h327v-109h-106v-114h-111zM197 -98q0 34 22.5 57t57.5 23q32 0 55.5 -23t23.5 -57q0 -32 -23.5 -55t-55.5 -23q-35 0 -57.5 23t-22.5 55zM197 -305q0 32 22.5 56t54.5 24q35 0 58.5 -24t23.5 -56q0 -34 -23.5 -57t-58.5 -23q-32 0 -54.5 23
t-22.5 57zM-3 -385v367h110v-367h-110z" />
  </font>
</defs>
</svg>
